<svg version="1.2" xmlns="http://www.w3.org/2000/svg" viewBox="0 0 1564 1104" width="1564" height="1104">
	<title>인증마크_웹 접근성 연구소_2022</title>
	<defs>
		<clipPath clipPathUnits="userSpaceOnUse" id="cp1">
			<path d="m0 1104v-1102.39h1562.59v1102.39"/>
		</clipPath>
		<clipPath clipPathUnits="userSpaceOnUse" id="cp2">
			<path d="m0 1104v-1102.39h1562.59v1102.39"/>
		</clipPath>
		<clipPath clipPathUnits="userSpaceOnUse" id="cp3">
			<path d="m0 1104v-1102.39h1562.59v1102.39"/>
		</clipPath>
		<clipPath clipPathUnits="userSpaceOnUse" id="cp4">
			<path d="m0 1104v-1102.39h1562.59v1102.39"/>
		</clipPath>
		<clipPath clipPathUnits="userSpaceOnUse" id="cp5">
			<path d="m0 1104v-1102.39h1562.59v1102.39"/>
		</clipPath>
		<clipPath clipPathUnits="userSpaceOnUse" id="cp6">
			<path d="m0 1104v-1102.39h1562.59v1102.39"/>
		</clipPath>
		<clipPath clipPathUnits="userSpaceOnUse" id="cp7">
			<path d="m0 1104v-1102.39h1562.59v1102.39"/>
		</clipPath>
	</defs>
	<style>
		.s0 { fill: #fefefe } 
		.s1 { fill: none;stroke: #86c045;stroke-width: 8 } 
		.s2 { fill: #8cc63f } 
		.s3 { fill: #86c045 } 
		.s4 { fill: #398941 } 
		.s5 { fill: #231f20 } 
		.s6 { fill: none;stroke: #231f20;stroke-linecap: round;stroke-linejoin: round;stroke-width: 4 } 
		.s7 { fill: #0a0b0b } 
		.s8 { fill: none;stroke: #0a0b0b;stroke-linecap: round;stroke-linejoin: round;stroke-width: 16 } 
		.s9 { fill: #3a8941 } 
		.s10 { fill: none;stroke: #fefefe;stroke-width: 4 } 
		.s11 { fill: none;stroke: #231f20;stroke-width: 3 } 
		.s12 { fill: #ec1c24 } 
	</style>
	<g id="Layer 1">
		<g id="&lt;Group&gt;">
			<g id="&lt;Clip Group&gt;" clip-path="url(#cp1)">
				<path id="&lt;Path&gt;" class="s0" d="m1531.3 505.9c0 270-335.8 488.9-750 488.9-414.2 0-750-218.9-750-488.9 0-270 335.8-488.9 750-488.9 414.2 0 750 218.9 750 488.9z"/>
				<path id="&lt;Path&gt;" class="s1" d="m1531.3 505.9c0 270-335.8 488.9-750 488.9-414.2 0-750-218.9-750-488.9 0-270 335.8-488.9 750-488.9 414.2 0 750 218.9 750 488.9z"/>
				<path id="&lt;Path&gt;" class="s2" d="m1009 368.2c0-18.4 15.4-33.5 34.3-33.5 18.9 0 34.2 15.1 34.2 33.5 0 18.5-15.3 33.5-34.2 33.5-18.9 0-34.3-15-34.3-33.5z"/>
				<path id="&lt;Path&gt;" class="s2" d="m1245.2 578.3c0 61.6-50 111.7-111.6 111.7-54.6 0-100.1-39.4-109.7-91.3 8.4-13.5 15.1-24.4 16-25.9h4.7c-0.1 1.8-0.3 3.7-0.3 5.5 0 49.2 40.1 89.3 89.3 89.3 49.3 0 89.3-40.1 89.3-89.3 0-35.5-20.9-66.1-50.9-80.5-5.7-8.5-12.6-18.7-19.9-29.5 52.8 8.9 93.1 54.8 93.1 110z"/>
				<path id="&lt;Path&gt;" class="s2" d="m953.4 671.4c-13.6 0-14.2-10.4-10.3-17.5l69.4-117.3h88.6l-43.5-66.6-20.9 36.3h-56.2c-11.5 0-8.7-31.9 0.6-31.4 9.4 0.6 40.2 0 40.2 0 0 0 27.1-61.1 40.1-69.8 16.5-11 35.3-5.4 41.3 0.6 6.1 6 78.1 113.9 78.1 113.9 16.6 25.9-15.9 48.5-29.1 48.5h-114.5l-52.8 85.8c-9.2 11.6-17.4 17.5-31 17.5z"/>
				<path id="&lt;Path&gt;" class="s2" d="m1042.7 516.9h-99.7v-27.7h99.7z"/>
				<path id="&lt;Path&gt;" class="s2" d="m954 490.7l-10.7 7.6-58.1-83 10.8-7.6z"/>
				<path id="&lt;Path&gt;" class="s3" d="m476.5 763.5c87.9 33.1 196 52.4 311.3 52.4 303.9 0 550.6-133.8 550.6-299.9 0-84.6-78.2-195.1-277.3-195.1-144.3 0-270.1 63.7-270.1 141.9 0 13.7 8 29 18.5 39.5 16.2 18.6 21 41.1 21 62.1 0 95.9-142.7 173.4-318.5 173.4-116.1 0-222.5-32.3-274.9-84.7-42-41.9-55.7-89.5-55.7-137.1 0-183 271.8-331.4 606.4-331.4 335.4 0 607.1 148.4 607.1 331.4 0 183-271.7 331.4-607.1 331.4-132.3 0-254.8-23.4-354-62.1z"/>
				<path id="&lt;Path&gt;" class="s4" d="m472.5 736.4c87.9 33.1 196 52.4 311.3 52.4 303.9 0 550.6-133.8 550.6-299.9 0-84.7-78.2-195.1-277.3-195.1-144.3 0-270.1 63.7-270.1 141.9 0 13.7 8 29 18.5 39.5 16.2 18.5 21 41.1 21 62.1 0 95.9-142.7 173.3-318.5 173.3-116.1 0-222.5-32.2-274.9-84.6-42-42-55.7-89.5-55.7-137.1 0-183 271.8-331.4 606.4-331.4 335.4 0 607.1 148.4 607.1 331.4 0 183-271.7 331.4-607.1 331.4-132.3 0-254.8-23.4-354-62.1z"/>
			</g>
			<g id="&lt;Group&gt;">
				<path id="&lt;Compound Path&gt;" class="s5" d="m523.3 851.5l-42.7 72.8-12.2-3.5 3.1-100 10.8 3.1-3.4 85.1 43.1-73.6 11.2 3.3-2.9 86 42.6-74.6 10.4 3-50.4 86.3-12.4-3.6z"/>
			</g>
			<g id="&lt;Clip Group&gt;" clip-path="url(#cp2)">
				<path id="&lt;Path&gt;" class="s6" d="m523.3 851.6l-42.8 72.8-12.1-3.5 3.1-100 10.8 3.1-3.4 85.1 43.1-73.6 11.2 3.2-2.9 86.1 42.6-74.6 10.4 3-50.4 86.3-12.4-3.6z"/>
			</g>
			<g id="&lt;Group&gt;">
				<path id="&lt;Compound Path&gt;" class="s5" d="m636.1 959.6l-59.1-10.2 16.4-95.6 59.2 10.1-1.7 9.5-48-8.3-5.1 29.3 44.7 7.7-1.6 9.3-44.7-7.7-6.5 37.9 48.1 8.2z"/>
			</g>
			<g id="&lt;Clip Group&gt;" clip-path="url(#cp3)">
				<path id="&lt;Path&gt;" class="s6" d="m636.4 959.6l-59.1-10.2 16.4-95.6 59.2 10.2-1.7 9.4-48-8.2-5.1 29.2 44.7 7.7-1.6 9.3-44.7-7.6-6.5 37.8 48.1 8.3z"/>
			</g>
			<g id="&lt;Group&gt;">
				<path id="&lt;Compound Path&gt;" fill-rule="evenodd" class="s5" d="m690 964.8l-32.6-2.9 8.6-96.5 32.2 2.9q6.8 0.6 11.8 2.7 5 2.2 8.3 5.5 3.3 3.2 4.8 7.3 1.4 4.1 1 8.6-0.7 8-5.8 13.4-5.1 5.4-13.4 7v0.3q4.9 1 8.8 3.4 3.8 2.4 6.4 5.8 2.6 3.4 3.8 7.7 1.2 4.4 0.8 9.4-0.5 5.2-2.9 10.1-2.3 5-6.7 8.6-4.4 3.7-10.7 5.6-6.2 1.8-14.4 1.1zm0.6-47.9l-17.8-1.6-3.4 38 20.1 1.8q10.3 0.9 16.2-3.7 5.8-4.6 6.6-13.3 0.8-9.1-4.5-14.6-5.3-5.5-17.2-6.6zm3.9-39.5l-18.1-1.6-2.7 30.2 16.8 1.5q9.3 0.9 15-2.2 5.8-3.1 6.6-11.9 0.6-7.7-3.8-11.4-4.4-3.7-13.8-4.6z"/>
			</g>
			<g id="&lt;Clip Group&gt;" clip-path="url(#cp4)">
				<path id="&lt;Compound Path&gt;" fill-rule="evenodd" class="s6" d="m690 964.9l-32.6-2.9 8.6-96.5 32.2 2.9q6.8 0.6 11.8 2.8 5 2.1 8.3 5.4 3.3 3.2 4.8 7.4 1.4 4.1 1 8.5-0.7 8.1-5.8 13.5-5.1 5.4-13.4 6.9v0.3q4.9 1.1 8.8 3.5 3.8 2.4 6.4 5.7 2.6 3.4 3.8 7.8 1.2 4.3 0.8 9.3-0.5 5.2-2.9 10.1-2.3 5-6.7 8.6-4.4 3.7-10.6 5.6-6.3 1.9-14.5 1.1zm0.6-47.9l-17.8-1.5-3.3 38 20 1.7q10.3 1 16.2-3.7 5.8-4.6 6.6-13.2 0.8-9.2-4.5-14.7-5.2-5.5-17.2-6.6zm3.9-39.4l-18.1-1.7-2.7 30.3 16.8 1.5q9.3 0.8 15-2.3 5.8-3.1 6.6-11.9 0.6-7.6-3.8-11.4-4.4-3.7-13.8-4.5z"/>
			</g>
			<g id="&lt;Group&gt;">
				<path id="&lt;Compound Path&gt;" fill-rule="evenodd" class="s5" d="m806.3 905.2q2.3 2.6 5.3 5 3 2.5 6.3 4.7 3.3 2.1 6.7 4 3.4 1.8 6.5 3.1l-5.9 7.5q-6.6-3.2-12.9-7.7-6.4-4.4-11.6-9.8-7.1 7.6-15.5 13.1-8.3 5.6-15.6 8.4l-6.8-6.8q7.6-2.9 14.5-7.4 7-4.4 12.6-9.7 5.5-5.4 9.4-11.3 3.9-5.9 5.4-11.9-6.1 0.5-12.3 0.7-6.3 0.2-12.5 0.4l-10.6 0.3-0.2-8.6 17.7-0.5q7.3-0.2 14.7-0.4 7.4-0.2 15.6-0.7-0.6 7.7-3.5 14.5-2.9 6.9-7.3 13.1zm46.2 71.1l-66.3 2-1.2-40.4 9.8-0.3 0.3 9.1 46.6-1.4-0.3-9.7 9.9-0.3zm-10.2-8.4l-0.4-14.4-46.6 1.4 0.4 14.4zm-20.6-62.5l-0.3-9 18.7-0.5-0.7-23.7 10-0.3 1.7 57.3-10 0.3-0.7-24.7z"/>
			</g>
			<g id="&lt;Clip Group&gt;" clip-path="url(#cp5)">
				<path id="&lt;Compound Path&gt;" fill-rule="evenodd" class="s6" d="m852.4 976.4l-66.3 1.9-1.2-40.4 9.9-0.3 0.2 9.1 46.6-1.3-0.2-9.8 9.8-0.3zm-10.1-8.4l-0.4-14.4-46.6 1.4 0.4 14.4zm-20.7-62.5l-0.2-8.9 18.6-0.6-0.7-23.6 10-0.3 1.7 57.2-10 0.3-0.7-24.7zm-15.4-0.2q2.2 2.6 5.3 5.1 3 2.4 6.3 4.6 3.3 2.2 6.7 4 3.4 1.8 6.5 3.1l-5.9 7.5q-6.6-3.2-12.9-7.7-6.4-4.4-11.6-9.8-7.1 7.6-15.5 13.1-8.4 5.6-15.6 8.5l-6.8-6.9q7.6-2.9 14.5-7.4 7-4.4 12.6-9.7 5.5-5.4 9.4-11.3 3.9-5.9 5.4-11.9-6.1 0.5-12.3 0.7-6.3 0.2-12.5 0.4l-10.6 0.3-0.2-8.5 17.7-0.6q7.3-0.2 14.7-0.4 7.4-0.2 15.5-0.7-0.5 7.7-3.4 14.6-2.9 6.8-7.3 13z"/>
			</g>
			<g id="&lt;Group&gt;">
				<path id="&lt;Compound Path&gt;" class="s5" d="m937.3 909.8q-0.1-8.7-0.6-17.9-0.4-9.2-1.6-17.8l-58.3 7.9-1.2-8.7 68.5-9.2q0.7 6.1 1.2 12.2 0.6 6.1 0.9 11.9 0.4 5.7 0.6 10.9 0.3 5.2 0.3 9.4l19.5-2.6 1.2 8.5-100.2 13.5-1.1-8.5zm22.6 53.8l-69.5 9.4-4.8-34.9 9.9-1.3 3.6 26.3 59.6-8.1z"/>
			</g>
			<g id="&lt;Clip Group&gt;" clip-path="url(#cp6)">
				<path id="&lt;Compound Path&gt;" class="s6" d="m959.8 963.7l-69.6 9.4-4.7-35 9.9-1.3 3.5 26.3 59.7-8.1zm-22.6-53.8q-0.2-8.8-0.6-17.9-0.4-9.2-1.6-17.9l-58.4 7.9-1.1-8.6 68.5-9.2q0.7 6.1 1.2 12.2 0.5 6.1 0.9 11.9 0.4 5.7 0.6 10.9 0.2 5.2 0.3 9.4l19.5-2.7 1.1 8.5-100.1 13.6-1.1-8.5z"/>
			</g>
			<g id="&lt;Group&gt;">
				<path id="&lt;Compound Path&gt;" fill-rule="evenodd" class="s5" d="m998.9 851.4q1.4 5 2 9.8 0.7 4.8 0.6 9.4 7 7.7 15.2 12.5 8.2 4.8 18.8 7.1l-4.2 8.4q-9.2-2.1-17-6.5-7.7-4.4-13.9-10.6-1.9 9.6-6.7 17.8-4.8 8.2-12 15l-8.3-4.7q12.4-11.9 16.6-25.5 4.2-13.6-1-30.3zm68.3 69.1q1 4.3-0.2 8.5-1.2 4.2-4.8 7.9-3.6 3.7-9.6 6.8-6 3.2-14.4 5.3-8.5 2.1-15.2 2.2-6.7 0.1-11.7-1.6-4.9-1.6-8-4.7-3-3.1-4.1-7.4-1.1-4.3 0.1-8.5 1.2-4.2 4.8-7.9 3.6-3.8 9.6-6.9 5.9-3.1 14.4-5.3 8.4-2.1 15.2-2.2 6.8-0.1 11.7 1.6 5 1.6 8 4.8 3.1 3.1 4.2 7.4zm-10.2 2.6q-0.5-2.4-2.5-4.2-1.9-1.8-5.3-2.7-3.5-0.9-8.3-0.8-4.8 0.1-11 1.7-6 1.5-10.3 3.7-4.2 2.1-6.8 4.5-2.5 2.5-3.4 5-0.9 2.5-0.3 4.8 0.6 2.3 2.5 4.1 2 1.7 5.4 2.6 3.4 0.9 8.1 0.7 4.7-0.2 10.8-1.7 6.2-1.5 10.5-3.6 4.3-2.1 6.9-4.5 2.6-2.4 3.4-4.9 0.9-2.5 0.3-4.7zm-34.6-47.9l-2.2-8.7 20.8-5.2-5.5-21.9 9.7-2.5 15.5 61.7-9.7 2.4-7.8-31z"/>
			</g>
			<g id="&lt;Clip Group&gt;" clip-path="url(#cp7)">
				<path id="&lt;Compound Path&gt;" fill-rule="evenodd" class="s6" d="m1067.2 920.4q1 4.3-0.2 8.5-1.2 4.2-4.8 7.9-3.6 3.7-9.6 6.8-6 3.2-14.4 5.3-8.5 2.1-15.2 2.2-6.7 0.1-11.7-1.6-4.9-1.6-8-4.7-3-3.1-4.1-7.4-1.1-4.3 0.1-8.5 1.2-4.2 4.8-7.9 3.6-3.8 9.6-6.9 5.9-3.2 14.4-5.3 8.4-2.1 15.2-2.2 6.8-0.1 11.7 1.5 4.9 1.7 8 4.8 3.1 3.2 4.2 7.5zm-10.2 2.5q-0.6-2.3-2.5-4.1-1.9-1.8-5.3-2.7-3.5-1-8.3-0.8-4.8 0.1-11 1.7-6 1.5-10.3 3.7-4.2 2.1-6.8 4.5-2.5 2.5-3.4 5-0.9 2.5-0.3 4.8 0.6 2.3 2.5 4.1 2 1.7 5.4 2.6 3.4 0.9 8.1 0.7 4.7-0.2 10.8-1.7 6.2-1.5 10.5-3.7 4.3-2.1 6.9-4.4 2.6-2.4 3.4-4.9 0.9-2.5 0.3-4.8zm-34.6-47.8l-2.2-8.7 20.8-5.2-5.5-21.9 9.7-2.5 15.5 61.7-9.7 2.4-7.8-31zm-23.5-23.8q1.4 5 2 9.8 0.7 4.8 0.6 9.4 7 7.7 15.2 12.5 8.2 4.8 18.8 7.2l-4.2 8.3q-9.2-2.1-16.9-6.5-7.8-4.3-14-10.6-1.9 9.6-6.7 17.8-4.8 8.2-12 15.1l-8.3-4.8q12.5-11.8 16.6-25.5 4.2-13.6-1-30.2z"/>
				<path id="&lt;Compound Path&gt;" class="s7" d=""/>
				<path id="&lt;Compound Path&gt;" class="s8" d=""/>
				<path id="&lt;Compound Path&gt;" class="s7" d=""/>
				<path id="&lt;Compound Path&gt;" class="s8" d=""/>
				<path id="&lt;Compound Path&gt;" class="s9" d="m300.7 217.2c-5.5-13.9-11-23.6-15.7-31.6l-33.2 19.9-6.1-10.2 45.7-27.4 4.4 7.3c5.1 8.6 11.6 19.5 18 35.6zm-0.3 15.3c8.4-5.4 16.8-11.2 24.3-17l6.2 8.8c-16.2 13.9-35.9 26.2-51.2 35.5l-7.5-9.8c5-2.9 10.4-6.1 15.9-9.6l-15.8-26.3 12.6-7.5zm45.8-46.3l-11.9 7.2 25.5 42.6-12.8 7.6-53.3-89.1 12.7-7.7 21.5 35.9 12-7.1z"/>
				<path id="&lt;Compound Path&gt;" fill-rule="evenodd" class="s9" d="m418.3 120.9l-56.9 21.8-4.2-10.9 21.4-8.2-3.5-9.1 14-5.4 3.4 9.1 21.6-8.3zm-13.6 49.7c-13.8 5.3-26.5 1.9-30.6-8.8-4-10.5 3-21.6 16.9-26.9 14-5.4 26.5-1.8 30.6 8.7 4 10.6-2.9 21.6-16.9 27zm-4-10.5c6.2-2.4 9.5-6.5 7.6-11.4-1.8-4.9-7.1-5.6-13.3-3.3-6.3 2.5-9.5 6.5-7.7 11.3 1.9 5 7.1 5.8 13.4 3.4zm-10.3 23.5l64.5-24.8 12.4 32.3-13.9 5.4-8.1-21.2-50.6 19.5zm66.4-58.1l-12.8 5 9.3 24.3-13.8 5.3-23.4-60.7 13.9-5.4 9.6 25 12.8-4.9z"/>
				<path id="&lt;Compound Path&gt;" class="s9" d="m534.1 76.4c7.3 31 2.8 58.7-28.9 84.4l-10.2-9.6c22.8-18.5 30.2-36.9 27-59.8l-33.6 7.9-2.7-11.5zm27.5-17.6l23.8 101.1-14.5 3.5-23.8-101.2z"/>
				<path id="&lt;Compound Path&gt;" class="s9" d="m664.6 97.1l0.8 6.6 27.9-3.2 3.1 26.8-56.4 6.4 0.7 5.8 59-6.7 1.3 11.1-73.7 8.4-3.1-27.1 56.5-6.5-0.7-5.6-56.5 6.5-1.3-11 28.4-3.2-0.7-6.7-39 4.5-1.4-11.7 93-10.6 1.3 11.7zm27.9-19.3c-17.9 0.1-31.5-5.2-39-13.8-5.4 10.1-17.5 18.3-35 22.2l-6.1-10.5c22.9-4.9 32.8-16.6 31.7-26.6l-0.2-1.9 15.2-1.7 0.2 1.9c1.1 10 13.5 19.1 36.9 18.7z"/>
				<path id="&lt;Compound Path&gt;" fill-rule="evenodd" class="s9" d="m789.3 97c-11.3-3.6-19.1-10.9-23.7-20-4.4 10.6-12.5 19.1-24.5 23.3l-7.7-11.7c16.4-5.9 23.8-19.2 24.1-32.1l-20.3 0.1-0.1-11.9 55.6-0.5 0.1 11.9-20.1 0.2c0.6 11.9 7.9 24 23.7 29zm32 24.8c0.1 12.6-13.3 20.1-35.2 20.3-22 0.2-35.6-7-35.7-19.7-0.1-12.6 13.3-20.1 35.3-20.3 21.9-0.2 35.5 7 35.6 19.7zm-14.8 0.1c-0.1-5.9-7.2-8.6-20.7-8.5-13.6 0.1-20.6 3-20.6 8.9 0.1 5.8 7.2 8.6 20.8 8.5 13.5-0.1 20.5-3 20.5-8.9zm-1-59l-0.2-25 14.8-0.2 0.6 61.8-14.9 0.2-0.2-24.7-15.5 0.1-0.1-12z"/>
				<path id="&lt;Compound Path&gt;" fill-rule="evenodd" class="s9" d="m948.5 128.2l-1.2 12-93.3-9.4 1.2-12 39.1 3.9 1.9-19-29.3-2.9 5.5-54 14.7 1.5-1.7 16 44.1 4.5 1.6-16.1 14.6 1.5-5.5 54-29.2-3-1.9 19zm-65.7-37.7l44.1 4.5 1.4-14.5-44-4.5z"/>
				<path id="&lt;Compound Path&gt;" fill-rule="evenodd" class="s9" d="m1072.2 126.9l-2.5 11.4-91.5-20.2 2.5-11.3 38.5 8.4 1.3-6.2-27-6 9.6-43.4 69.6 15.3-2.4 11-55.3-12.1-1.1 5.3 52.9 11.6-2.3 10.6-53-11.6-1.2 5.5 56 12.3-2.4 11-28.9-6.3-1.4 6.2zm-17.9 30.2c-2.3 10.8-16.5 13.8-38.8 8.9-22.1-4.9-33.7-13.6-31.3-24.4 2.4-10.9 16.5-13.8 38.7-8.9 22.2 4.9 33.8 13.5 31.4 24.4zm-14.6-3.3c0.9-4.1-5.1-7.3-19.2-10.4-13.9-3.1-20.8-2.8-21.7 1.4-0.9 4.2 5.1 7.5 19.1 10.6 14 3.1 20.9 2.6 21.8-1.6z"/>
				<path id="&lt;Compound Path&gt;" class="s9" d="m1172.5 200.1l-4 11.1-67.2-24.5 11.4-31.5 14 5.1-7.4 20.4zm-20.5-39.5c-9.4-7.7-14.1-17.6-15-28.2-8.1 8.2-18.6 13.4-31.3 13.2l-3-13.8c18.1 0.4 30.1-10.7 34.8-23.6l3.5-9.6 14.2 5.2-3.5 9.6c-4.7 12.8-2.5 27.7 11.5 38.6zm22.9 25.1l-14-5.1 25.9-71.1 14.1 5.1z"/>
				<path id="&lt;Compound Path&gt;" fill-rule="evenodd" class="s9" d="m1291.2 242.2l-34.6-19.7-16 28.2-12.9-7.4 16-28.1-34-19.3 5.8-10.3 81.6 46.3zm1-24.3l-62.6-35.6 22.7-40 12.8 7.3-5.8 10.3 37 21 5.9-10.3 12.7 7.2zm-1.6-26.8l-37-21.1-5.3 9.4 37 21z"/>
				<path id="&lt;Compound Path&gt;" class="s10" d=""/>
				<path id="&lt;Compound Path&gt;" class="s0" d=""/>
				<path id="&lt;Compound Path&gt;" class="s10" d=""/>
				<path id="&lt;Compound Path&gt;" class="s0" d=""/>
				<path id="&lt;Compound Path&gt;" class="s10" d=""/>
				<path id="&lt;Path&gt;" class="s0" d="m496.2 600.5h-49.2l-7-161.6-104.3 161.6h-49.3l-0.4-266.5h61.5l-3.9 168.1 105.9-168.1h44.2l4.5 168.1 97.8-168.1h61.5z"/>
				<path id="&lt;Compound Path&gt;" fill-rule="evenodd" class="s0" d="m697.8 602.7l0.9-47.3h-74.4l-26.1 47.3h-71.3l160.6-267.2h70.4l11.3 267.2zm4.5-188.5l-54.8 97.2h53.7z"/>
			</g>
			<g id="&lt;Group&gt;">
				<path id="&lt;Compound Path&gt;" class="s11" d="m137.9 789.2q-9.1 1.5-15.1 3.9-6.1 2.5-10.8 6.9-5.4 5.1-8.7 11.5-3.2 6.4-5 14.8l-3.7-3.9q0.2-9.9 3.5-16.6 3.2-6.6 8.5-11.5 5.4-5.1 11.9-7.1 6.4-2.1 15.7-1.9z"/>
				<path id="&lt;Compound Path&gt;" class="s11" d="m167.2 840.3l4.3 3.9-5.5 6.1-4.3-4-20.9 22.9-8.6-7.9 6.1-6.7-5.1-0.4q-0.9-5.9-0.8-11.6 0-5.8 1.4-11.4-5.2 1.9-11.2 2.7-5.9 0.8-10.9 0.4l-0.4-9.9q11.6-0.4 21-5.5 9.3-5.1 19.5-16.3l8.7 7.9q-10 11-13.5 20.3-3.5 9.2-3.2 17.8l27.2-29.9 8.7 7.9z"/>
				<path id="&lt;Compound Path&gt;" class="s11" d="m190.8 853.2q-1.5 6.5-6.1 12.3-4.5 5.7-10.8 9.6-6.3 3.8-16.2 4.8l-4.2-3.3q8.2-2.5 14.3-6.3 6.1-3.7 10.7-9.6 4-5.1 6-11.3 1.9-6.3 2.5-15.4l4.3 3.3q1 9.3-0.5 15.9z"/>
				<path id="&lt;Compound Path&gt;" fill-rule="evenodd" class="s11" d="m190 882.1l9.7 6.7-6.9 9.9 27.7 19-4.7 6.8-33.2-22.9q-1.8-1.2-2.2-3.1-0.3-1.9 0.9-3.7zm34.4-17.2l9 6.2-4.6 6.8-4.2-2.9q2 3.2 1.6 6.2-0.4 3.1-1.8 5.1-3.3 4.8-9.5 5.4-6.2 0.7-13.4-4.3-7.2-4.9-8.8-10.9-1.6-6 1.7-10.8 1.4-2 4.1-3.5 2.7-1.5 6.2-0.9l-4.9-3.4 4.6-6.7 10.4 7.1 1.6-2.4 9.7 6.6zm-16.2 4.9q-2.5 0.2-4 2.4-1.6 2.3-0.9 4.7 0.8 2.4 2.9 3.8 2.1 1.4 4.5 1.3 2.5-0.2 4.1-2.5 1.5-2.2 0.8-4.6-0.7-2.4-2.8-3.9-2.1-1.4-4.6-1.2zm39.2 6.5l-8.7 12.7 4.8 3.3-4.6 6.7-4.8-3.3-11.3 16.3-9.6-6.6 24.5-35.7z"/>
				<path id="&lt;Compound Path&gt;" class="s11" d="m295.7 906.7q0.3 1.2-0.5 2.8-2.1 3.5-4.2 6.7-2.1 3.2-4.8 6l3.7 2.1-4.1 7.1-17.8-10.2-2.1 3.7 14.3 8.3-12.1 21-10.2-5.9 8-13.9-29.1-16.7 4.1-7.1 14.8 8.5 2.2-3.8-17.3-9.9 4.1-7.1 30.9 17.7q2.2-1.8 3.9-3.9 1.6-2.2 2.9-4.6l-29.5-16.9 4.1-7.1 36.9 21.2q1.5 0.8 1.8 2z"/>
				<path id="&lt;Compound Path&gt;" class="s11" d="m317.9 949.3q-0.7 9.1 2 20.2l-9.3 1.9q-1.8-5.4-2.6-10.7-0.9-5.3-1-11-4.5 3.6-9.3 6-4.7 2.5-9.8 4.2l-3.9-8q9.1-3.3 16.8-10.4 7.6-7.1 10.4-12.9l5.4-11.3 10.6 5.1-5.4 11.3q-3.1 6.4-3.9 15.6zm23-22.5l10.6 5.1-25 51.9-10.6-5.1z"/>
				<path id="&lt;Compound Path&gt;" class="s11" d="m382.6 1006.8l-10.9-4.4 5.6-13.9-31.4-12.6 3.1-7.6 42.2 16.9zm3.9-57q0.5 1.1-0.1 2.7-3.5 8.6-14.7 13.6-11.2 5-22.7 0.7l-2.8-7.6q9.2 2 15.5 0 6.3-2.1 10.7-7.2l-17.2-6.9 3.1-7.6 26.1 10.5q1.6 0.6 2.1 1.8zm14.1 12.2l5.4 2.2-3 7.6-5.5-2.1-5.8 14.4-10.8-4.3 12.2-30.5 10.9 4.4z"/>
				<path id="&lt;Compound Path&gt;" fill-rule="evenodd" class="s11" d="m446.2 1009.7q0.1 3.1-0.8 5.7-1.8 5.5-8.7 6.9-6.9 1.5-15.5-1.4-8.6-2.8-13.4-8.2-4.9-5.4-3.1-10.8 1.9-5.5 9-6.9 7.2-1.4 15.8 1.4 2.7 0.9 5 1.8 2.2 0.8 3.7 1.9l2.5-7.7-6.4 4.5q-4.1-3.2-6.6-6.6-2.4-3.4-3.8-7.4-3.7 2.4-7.8 3.7-4.1 1.2-8.4 1l-4.7-8.8q6.5 0 11.1-2.2 4.5-2.2 7.3-6.8l-9.8-3.3 2.6-7.7 30.9 10.2-2.5 7.8-9.5-3.1q-0.3 5 2.2 9.6 2.5 4.6 6 7.3l7.3-21.9 11.1 3.7-3.8 11.5 5.5 1.9-2.5 7.8-5.6-1.9-4.8 14.4-5.3-1.8q2.9 2.3 3 5.4zm-26.5-6.6q-3.1 0.2-3.8 2.4-0.8 2.2 1.6 4.3 2.4 2.1 6.3 3.4 4 1.3 6.9 1 2.9-0.3 3.6-2.5 0.8-2.2-1.4-4.2-2.1-2-6.1-3.3-3.9-1.3-7.1-1.1z"/>
				<path id="&lt;Compound Path&gt;" fill-rule="evenodd" class="s11" d="m485.7 988.8q2 8.1-0.7 18.2-2.7 10-8.5 16.1-5.9 6.1-11.3 4.7-5.4-1.5-7.3-9.7-1.9-8.2 0.7-18.2 2.7-10.1 8.5-16.1 5.7-6 11.2-4.6 5.4 1.5 7.4 9.6zm-13.2 3.7q-2 4-3.7 10.1-1.6 6.2-1.9 10.7-0.3 4.5 0.9 4.8 1.2 0.4 3.3-3.7 2.1-4 3.7-10.1 1.7-6.2 1.9-10.6 0.2-4.5-1-4.9-1.3-0.3-3.2 3.7zm31-8.3l-5.2 19.3 1.9 0.6 5.2-19.4 10.2 2.7-15 55.7-10-2.7 7.5-28.4-1.9-0.5-7.7 28.4-10.2-2.8 15-55.7z"/>
				<path id="&lt;Compound Path&gt;" fill-rule="evenodd" class="s11" d="m521.3 1023.6l11.5 2.5-3.1 14.4 32 6.8-1.7 8-38.6-8.2q-2.2-0.4-3.2-2-1.1-1.6-0.6-3.8zm29.6-23q4.6 5.3 3.1 12.4-1.6 7.1-7.9 10.2-6.3 3-13.3 1.5-7-1.5-11.6-6.8-4.5-5.3-3-12.5 1.5-7.1 7.8-10.1 6.4-3 13.4-1.5 7 1.5 11.5 6.8zm-17.9 2.2q-2.6 1.4-3.3 5.1-0.8 3.6 0.9 6 1.7 2.3 3.9 2.8 2.2 0.5 4.7-1 2.5-1.4 3.3-5.1 0.8-3.7-0.9-6-1.8-2.3-3.9-2.8-2.2-0.5-4.7 1zm30.1 37l-11.4-2.4 8.4-39.7 11.5 2.4z"/>
				<path id="&lt;Compound Path&gt;" fill-rule="evenodd" class="s11" d="m621 1052.2l-11.6-1.8 2.2-14.1-8-1.3 0.6-4.1q-2.3 2.5-6.1 3.5-3.7 1-9.1 0.2-7.3-1.2-11.7-6.1-4.3-4.9-3.3-11.7 1.1-6.7 6.8-10.3 5.7-3.5 13-2.4 5.4 0.9 8.8 4 3.4 3.2 4.4 6.4l0.5-2.9 7.9 1.3 0.8-5.2 11.6 1.8zm-43.2-16.9l11.6 1.8-2.3 14.5 33.9 5.4-1.3 8.1-40.6-6.5q-2.2-0.3-3.3-1.9-1.1-1.5-0.8-3.7zm10.6-22q-2.2 1.5-2.7 4.9-0.6 3.4 0.9 5.7 1.6 2.3 3.6 2.6 1.9 0.3 3.9-1.4 2-1.7 2.5-5.2 0.6-3.4-0.8-5.4-1.4-2-3.4-2.3-1.8-0.3-4 1.1zm19.5 10.3q-0.4 1.9-1.2 3.6l6.2 1 1.1-7.2-5.7-0.9q-0.1 1.7-0.4 3.5z"/>
				<path id="&lt;Compound Path&gt;" fill-rule="evenodd" class="s11" d="m657.3 1015.8l10.9 1.2-0.8 8.2-4.9-0.5q3.2 1.6 4.3 4.3 1 2.7 0.8 5.1-0.6 5.4-5.8 8.8-5.2 3.3-13.9 2.3-8.7-0.9-13-5.2-4.3-4.4-3.7-9.9 0.3-2.3 1.8-4.7 1.6-2.5 5-3.4l-5.8-0.6 0.9-8.2 12.5 1.4 0.3-2.8 11.7 1.3zm19.4 56l-38.6-4.1q-2.2-0.3-3.4-1.8-1.2-1.4-0.9-3.7l1.9-18.1 11.7 1.2-0.4 3.8 20.1 2.1 0.4-3.7 11.7 1.3zm-31.3-44.9q-2.2 1.2-2.5 3.9-0.3 2.5 1.6 4.2 1.9 1.7 4.4 1.9 2.5 0.3 4.7-0.9 2.1-1.3 2.4-3.8 0.3-2.7-1.6-4.3-1.8-1.6-4.4-1.9-2.4-0.3-4.6 0.9zm0.4 33.3l20.1 2.2 0.3-3.1-20.1-2.2zm37-45l-1.1 10.2 5.9 0.6-0.9 8.1-5.9-0.6-1.5 13.9-11.6-1.3 3.5-32.1z"/>
				<path id="&lt;Compound Path&gt;" fill-rule="evenodd" class="s11" d="m741.5 1018.8l-3.4 57.2-11.7-0.7 0.3-4.9-37.2-2.2 0.5-8.2 12.1 0.7 0.4-6.4 11.7 0.7-0.4 6.4 13.4 0.8 2.6-44.1zm-25.8 1.3l10.7 0.6-0.5 8.2-7.8-0.4q3 1.7 5.3 4.9 2.2 3.3 2 7.2-0.3 5.9-5 9.8-4.6 4-12.6 3.5-8-0.4-12.2-4.9-4.1-4.5-3.8-10.3 0.3-4 2.9-7 2.6-2.9 5.8-4.3l-7.7-0.4 0.4-8.2 10.8 0.6 0.2-2.8 11.7 0.7zm-9.3 14.5q-1.4 1.7-1.6 4.8-0.2 2.9 1 4.8 1.3 1.9 2.8 2 1.8 0.1 3.1-1.6 1.3-1.8 1.5-4.7 0.2-3.1-0.9-4.9-1.2-1.8-2.9-1.9-1.5-0.1-3 1.5z"/>
				<path id="&lt;Compound Path&gt;" class="s11" d="m865.5 1022.6q4.8 3.9 5.2 11.2 0.2 5-2.8 9.3-3 4.4-9.6 9.1-3.9 2.6-6.1 5.7-2.3 3-2.7 6.1l22.7-1.2 0.5 8.4-27.8 1.5q-2.9 0.2-5-1.4-2.1-1.5-2.2-4.4-0.2-3.8 2.7-9.8 2.8-6 9.9-10.8 4.1-2.7 6.2-6.3 2.1-3.6 1.9-6.4-0.1-3.2-1.6-4.7-1.4-1.5-3.7-1.3-2.6 0.1-3.8 2-1.3 2-1.1 4.8l-12.7 0.7q0.4-7.4 4.9-11.5 4.5-4.1 11.7-4.4 8.6-0.5 13.4 3.4z"/>
				<path id="&lt;Compound Path&gt;" fill-rule="evenodd" class="s11" d="m905.9 1022.8q5.1 7.1 6.1 18.8 1 11.3-3.2 19.4-4.2 8-13.2 8.9-8.9 0.9-14.4-5.7-5.5-6.7-6.6-19.4-1-11.7 3.3-19.6 4.3-8 13.1-8.8 9.8-0.8 14.9 6.4zm-18.8 6.6q-1.2 4.3-0.3 13.9 0.8 9.3 2.5 13.5 1.8 4.1 5.5 3.8 3.8-0.3 4.8-4.6 1-4.3 0.2-13.8-0.8-10-2.7-13.8-1.8-3.9-5.4-3.5-3.4 0.3-4.6 4.5z"/>
				<path id="&lt;Compound Path&gt;" class="s11" d="m942.5 1015.1q5 3.6 5.9 10.8 0.6 5-2.1 9.5-2.7 4.6-9.1 9.7-3.6 2.9-5.7 6.1-2 3.2-2.2 6.3l22.5-2.7 1 8.4-27.6 3.3q-2.8 0.3-5-1.1-2.2-1.4-2.5-4.2-0.5-3.8 2-10 2.5-6.2 9.2-11.4 3.9-3 5.8-6.7 1.8-3.8 1.5-6.6-0.4-3.2-1.9-4.5-1.5-1.4-3.9-1.1-2.5 0.3-3.6 2.3-1.2 2-0.8 4.8l-12.6 1.5q0-7.4 4.2-11.7 4.2-4.4 11.4-5.3 8.5-1 13.5 2.6z"/>
				<path id="&lt;Compound Path&gt;" class="s11" d="m980.8 1009.4q5.1 3.5 6.2 10.6 0.8 5-1.7 9.6-2.6 4.6-8.8 10-3.5 3-5.5 6.3-1.9 3.2-2 6.3l22.5-3.4 1.2 8.3-27.4 4.2q-2.8 0.5-5.1-0.9-2.2-1.3-2.7-4.1-0.6-3.7 1.7-10 2.3-6.3 8.9-11.8 3.7-3.1 5.5-6.9 1.7-3.8 1.3-6.6-0.5-3.1-2.1-4.4-1.6-1.4-3.9-1-2.5 0.4-3.6 2.5-1 2-0.6 4.8l-12.5 1.9q-0.3-7.4 3.7-11.9 4.1-4.5 11.3-5.6 8.4-1.3 13.6 2.1z"/>
				<path id="&lt;Compound Path&gt;" class="s11" d="m1006.3 1046l1.5 8.3-8.3 1.5-1.5-8.3z"/>
				<path id="&lt;Compound Path&gt;" fill-rule="evenodd" class="s11" d="m1036.5 1002.2q5.9 6.6 8.2 18 2.3 11.2-0.9 19.7-3.3 8.5-12 10.4-8.8 1.9-15-4.1-6.2-5.9-8.8-18.5-2.3-11.4 1-19.8 3.3-8.4 12-10.2 9.6-2 15.5 4.5zm-17.9 8.8q-0.7 4.4 1.2 13.8 1.9 9.2 4.2 13.1 2.3 3.9 5.9 3.2 3.7-0.8 4.2-5.1 0.5-4.4-1.4-13.8-2-9.7-4.3-13.3-2.2-3.7-5.7-2.9-3.4 0.7-4.1 5z"/>
				<path id="&lt;Compound Path&gt;" fill-rule="evenodd" class="s11" d="m1070.4 987l8.6 35.5 6.1-1.5 2 8.2-6.1 1.5 1.8 7.4-11.9 2.8-1.8-7.4-14.1 3.4q-3.1 0.8-5-1.6-2-2.3-0.6-6.5l12.7-39.7zm-3.3 38.2l-3.6-15.1-5.6 17.4z"/>
				<path id="&lt;Compound Path&gt;" class="s11" d="m1100.5 1024.6l2.2 8.1-8.1 2.2-2.2-8.1z"/>
				<path id="&lt;Compound Path&gt;" fill-rule="evenodd" class="s11" d="m1126.7 978.3q6.5 6 9.8 17.2 3.3 10.9 0.8 19.7-2.5 8.7-11.1 11.4-8.5 2.7-15.3-2.7-6.7-5.4-10.3-17.6-3.4-11.3-0.8-19.9 2.6-8.7 11.1-11.2 9.3-2.8 15.8 3.1zm-17 10.4q-0.3 4.4 2.4 13.6 2.7 9 5.3 12.7 2.6 3.7 6.1 2.6 3.7-1.1 3.8-5.5 0.1-4.3-2.6-13.5-2.9-9.6-5.4-13-2.6-3.4-6-2.3-3.3 0.9-3.6 5.4z"/>
				<path id="&lt;Compound Path&gt;" fill-rule="evenodd" class="s11" d="m1153.1 1014.8q-5.3-1.8-7.6-6.9l11.5-4q0.5 1.6 2 2.2 1.5 0.7 3.5 0 2.4-0.8 3.2-4.7 0.8-3.9-1-9.3-0.9 1.6-2.4 3.1-1.5 1.5-3.4 2.1-7.2 2.5-13.4-0.3-6.3-2.8-8.9-10.6-2.4-7 0.6-13.7 3-6.7 10.8-9.4 7.6-2.6 14.7 2 7.1 4.6 11.3 16.7 4.3 12.7 1.6 21.1-2.6 8.4-10.9 11.2-6.4 2.2-11.6 0.5zm7.2-29.6q0.8-3-0.6-7.1-1.3-4-3.9-5.9-2.5-1.8-4.8-1-2.3 0.8-3.3 3.9-1 3.1 0.4 7.4 1.3 3.8 3.8 5.6 2.4 1.9 5 1 2.5-0.9 3.4-3.9z"/>
				<path id="&lt;Compound Path&gt;" class="s11" d="m1208.6 967.2q1 6.6-0.8 9.4-1.8 2.9-4.3 3.9-2.9 1.2-7.7-1.2-4.8-2.3-7.8-1.2-2.3 0.9-2.6 4-0.3 3.1 0 5.4l-4.9-2.8q-0.4-4.3 0.7-8.3 1.1-4.1 4.1-5.3 3.2-1.2 8.4 1.2 5.3 2.4 7.3 1.7 1.7-0.7 2.5-2.5 0.8-1.7 0-7.6z"/>
				<path id="&lt;Compound Path&gt;" class="s11" d="m1234 933.6q5.9 2 8.8 8.7 2 4.6 0.8 9.7-1.3 5.1-5.9 11.8-2.7 3.9-3.7 7.5-1 3.7-0.3 6.7l20.8-9.1 3.4 7.7-25.4 11.2q-2.7 1.1-5.2 0.4-2.5-0.7-3.6-3.3-1.6-3.5-1-10.1 0.6-6.7 5.5-13.6 2.9-4 3.6-8.1 0.6-4.1-0.5-6.7-1.3-3-3.1-3.8-1.9-0.9-4 0-2.4 1.1-2.9 3.3-0.5 2.3 0.7 4.9l-11.6 5.1q-2.2-7.1 0.5-12.5 2.8-5.4 9.4-8.3 7.9-3.4 13.7-1.5z"/>
				<path id="&lt;Compound Path&gt;" fill-rule="evenodd" class="s11" d="m1272.6 918.7q7.3 4.8 12.5 15.3 5.1 10.1 4.1 19.2-1 9-8.9 13.1-8 4.1-15.5-0.1-7.6-4.1-13.3-15.6-5.2-10.5-4.1-19.4 1.1-9 9-12.9 8.8-4.4 16.2 0.4zm-15.1 13.1q0.5 4.4 4.8 13 4.1 8.4 7.3 11.6 3.2 3.2 6.5 1.5 3.4-1.7 2.8-6-0.6-4.3-4.9-12.9-4.4-9-7.5-11.9-3.1-2.9-6.3-1.3-3.1 1.6-2.7 6z"/>
				<path id="&lt;Compound Path&gt;" class="s11" d="m1304.4 897.3q6 1.4 9.6 7.7 2.4 4.4 1.7 9.6-0.8 5.2-4.7 12.4-2.3 4.1-3 7.8-0.6 3.8 0.3 6.7l19.9-11.1 4.1 7.4-24.3 13.5q-2.5 1.4-5 1-2.6-0.5-4-3-1.8-3.3-1.9-10-0.1-6.6 4.2-14 2.4-4.3 2.7-8.4 0.3-4.2-1.1-6.7-1.5-2.8-3.5-3.4-1.9-0.7-3.9 0.4-2.3 1.3-2.5 3.6-0.3 2.3 1.1 4.7l-11.1 6.2q-2.8-6.8-0.6-12.5 2.2-5.6 8.5-9.1 7.5-4.2 13.5-2.8z"/>
				<path id="&lt;Compound Path&gt;" class="s11" d="m1336.8 876.5q5.6 0.4 9.1 5.8 2.4 3.8 2.1 8.2-0.2 4.3-3.4 7.3 4.4-2.3 9.2-0.9 4.7 1.5 7.2 5.5 3.6 5.7 2 11.9-1.6 6.2-8.6 10.6-6 3.8-12.5 3.9-6.5 0-11.4-6l10.3-6.5q1.8 2.3 4 2.8 2.2 0.5 4.8-1.2 2-1.2 2.4-3.8 0.4-2.5-1.2-5-2-3.2-5.5-3.7-3.5-0.5-7.8 2.7l-4.6-7.2q3.5-2 4.4-5 0.9-2.9-0.7-5.4-1.3-2.1-3.1-2.7-1.9-0.6-3.8 0.5-1.9 1.2-2.2 3.2-0.4 2 0.6 3.6l-10.3 6.5q-3.1-6.1-1.2-11.8 2-5.8 8.7-10 5.9-3.7 11.5-3.3z"/>
				<path id="&lt;Compound Path&gt;" class="s11" d="m1377 898.9l4.8 7-6.9 4.8-4.8-7z"/>
				<path id="&lt;Compound Path&gt;" fill-rule="evenodd" class="s11" d="m1386.7 845.8q8.1 3.4 15.2 12.8 6.8 9.1 7.5 18.1 0.7 9.1-6.4 14.6-7.1 5.5-15.3 2.7-8.1-2.7-15.8-12.9-7.1-9.4-7.6-18.4-0.6-9 6.5-14.3 7.8-5.9 15.9-2.6zm-12.4 15.7q1.3 4.2 7 11.9 5.7 7.5 9.4 10.1 3.7 2.5 6.7 0.3 3-2.3 1.6-6.4-1.4-4.2-7.2-11.9-5.9-7.9-9.5-10.2-3.6-2.3-6.5-0.2-2.7 2.1-1.5 6.4z"/>
				<path id="&lt;Compound Path&gt;" fill-rule="evenodd" class="s11" d="m1410.8 816.6l23.7 27.7 4.8-4.2 5.5 6.5-4.8 4.1 4.9 5.8-9.3 7.9-4.9-5.8-11 9.4q-2.4 2.1-5.3 0.9-2.8-1.2-3.4-5.6l-6.7-41.2zm14.4 35.6l-10.1-11.8 2.9 18z"/>
				<path id="&lt;Compound Path&gt;" class="s11" d="m1455.5 835.1l5.8 6.1-6.2 5.8-5.7-6.1z"/>
				<path id="&lt;Compound Path&gt;" fill-rule="evenodd" class="s11" d="m1456.6 781q8.6 2 17 10.1 8.3 7.8 10.4 16.7 2.2 8.8-3.9 15.4-6.1 6.6-14.6 5.2-8.5-1.4-17.8-10.2-8.4-8.1-10.5-16.9-2-8.8 4.1-15.2 6.7-7.1 15.3-5.1zm-9.7 17.4q2 4 8.9 10.7 6.8 6.4 10.9 8.4 4.1 1.9 6.6-0.8 2.7-2.7 0.6-6.6-2.1-3.9-9-10.5-7.2-6.9-11.1-8.6-3.9-1.6-6.4 0.9-2.4 2.5-0.5 6.5z"/>
				<path id="&lt;Compound Path&gt;" fill-rule="evenodd" class="s11" d="m1478.1 749.8q5.9-0.6 9.9 2.7 3.1 2.5 4.3 5.9 1.3 3.4-0.1 7.1 4.3-2.8 8.6-2.1 4.3 0.6 7.8 3.5 4.6 3.8 5.2 10.4 0.6 6.6-5.1 13.6-5.2 6.4-11.8 7.8-6.6 1.4-11.8-2.9-4-3.2-5.2-7.5-1.1-4.2 0.3-7.9-3.1 1.7-6.8 1.4-3.6-0.4-6.8-3-4.3-3.4-4.6-9.4-0.4-6 4.8-12.3 5.3-6.6 11.3-7.3zm-5.6 16.4q0.5 2.2 2.5 3.8 2.1 1.7 4.2 1.6 2.2 0 3.5-1.6 1.3-1.6 0.7-3.8-0.5-2.2-2.3-3.7-2.2-1.7-4.4-1.7-2.1 0-3.4 1.6-1.4 1.7-0.8 3.8zm15.8 14.3q0.8 2.9 3.7 5.2 2.5 2.1 5.5 2.1 2.9 0 4.6-2.1 1.9-2.3 1.2-5.1-0.7-2.9-3.2-4.9-2.8-2.3-5.8-2.6-3-0.3-5 2.1-1.8 2.3-1 5.3z"/>
			</g>
			<path id="&lt;Compound Path&gt;" fill-rule="evenodd" class="s12" d="m88.8 785.5c-6.6 7.4-14.3 12.8-22 16.3q1.1-5.5 2.1-11c-0.3-2.4-3.3-2.8-4.2-0.7q-1.6 6-3.1 11.9-0.3 0.1-0.7 0.1 2.6-10.6 5.1-21.2c-0.5-1.9-3.9-2.6-4.7-0.8q-2.7 10.4-5.5 20.8c-0.2-0.1-0.5-0.2-0.8-0.3 2.1-8.6 4-16.5 6-25-0.8-2.4-4.5-2.7-5.5-0.5-2.2 8.1-4.1 15.7-6.2 23.9-0.4 0-0.6 0-0.9 0q2.7-11.3 5.6-22.6 0.8-3.7 1.7-7.3c-0.4-2.2-4.5-3.2-5.7-0.9q-2.3 8.8-4.6 17.7l-1.8 1.9q0.8-3.2 1.6-6.3c-0.5-2.8-3.9-3.5-5.5-0.9q-2.9 9-5.7 18-0.5 1.4-1 2.9-0.5-0.4-1-0.7c-0.7-0.5-1.4-1.1-2-1.7-14.2-12.7-10.8-39.6 7.4-59.9 18.2-20.2 44.7-26.4 58.8-13.6 0.7 0.6 1.3 1.2 1.9 1.8 12 13.4 8.2 38.8-9.3 58.1zm5.3-52.4c1 1.7 0.3 3.7-1.3 7.6 0.5 1.6 3.4 3.7 4.6 1.7 4.2-6.2 3-10.6 0.1-13.7q-0.2-0.1-0.4-0.3c-4.7-3.6-9.6-3.3-13.5 0.8q-14.9 16.6-29.9 33.2c-1.8 1.9 2.9 5.7 4.5 4 10.1-11.3 20.2-22.7 30.4-34 1.5-1.7 3.6-1.1 4.9 0.1 0.2 0.2 0.4 0.4 0.6 0.6zm-52.8 64.4c0.3 0.1 0.6 0.2 1 0.2 1-3.9 2-7.8 3.1-11.8l-1.8 1.9c-0.8 3.2-1.6 6.5-2.3 9.7z"/>
		</g>
	</g>
</svg>